<?xml version="1.0" standalone="no"?>
<!DOCTYPE svg PUBLIC "-//W3C//DTD SVG 20010904//EN"
 "http://www.w3.org/TR/2001/REC-SVG-20010904/DTD/svg10.dtd">
<svg version="1.0" xmlns="http://www.w3.org/2000/svg"
 width="483.000000pt" height="522.000000pt" viewBox="0 0 483.000000 522.000000"
 preserveAspectRatio="xMidYMid meet">

<g transform="translate(0.000000,522.000000) scale(0.100000,-0.100000)"
fill="#000000" stroke="none">
<path d="M2647 4879 c-11 -15 -36 -24 -93 -34 -88 -16 -154 -38 -199 -65 -16
-10 -40 -21 -53 -25 -78 -23 -373 -265 -442 -362 -22 -32 -63 -85 -91 -118
-82 -96 -119 -160 -140 -243 -11 -42 -27 -90 -34 -107 -33 -74 -56 -173 -62
-263 -3 -53 -10 -102 -15 -108 -8 -11 -15 -72 -33 -300 -3 -40 -10 -96 -14
-126 -5 -30 -8 -69 -7 -88 2 -19 -1 -43 -6 -54 -18 -34 -20 -139 -4 -226 8
-47 18 -102 21 -122 6 -40 25 -53 25 -18 0 11 5 20 10 20 6 0 10 -9 10 -21 0
-11 6 -41 14 -67 8 -26 22 -81 31 -122 18 -78 54 -159 88 -197 l20 -22 -42
-49 c-41 -50 -60 -61 -215 -129 -43 -19 -103 -51 -134 -70 -30 -19 -84 -49
-121 -65 -192 -87 -235 -117 -347 -246 -123 -141 -165 -255 -198 -537 -16
-146 -33 -224 -146 -673 -58 -229 -80 -333 -80 -379 l0 -63 2220 0 2220 0 0
125 0 125 -26 -10 c-32 -12 -37 -12 -29 0 3 5 -7 8 -24 5 -27 -3 -29 -1 -22
18 5 12 11 20 15 17 4 -3 12 3 17 13 6 9 15 14 21 11 6 -4 9 -1 6 7 -3 8 -15
20 -29 26 -14 7 -18 13 -9 13 9 0 20 16 26 36 l12 36 -71 -4 c-43 -2 -72 -9
-75 -16 -2 -7 -9 -12 -16 -12 -7 0 -18 -11 -24 -25 -9 -19 -19 -25 -42 -25
-16 0 -30 -5 -30 -11 0 -24 -26 18 -28 46 -1 17 -5 44 -8 60 -13 66 -6 145 16
180 12 19 25 35 30 35 5 0 12 9 15 20 3 11 12 20 19 20 15 0 98 87 115 122 19
38 8 103 -29 180 -18 35 -44 97 -60 138 -95 249 -308 583 -479 750 -42 41 -84
85 -92 98 -11 17 -38 28 -124 48 -60 15 -144 37 -185 49 -41 13 -111 32 -155
43 -44 11 -98 24 -120 30 -54 14 -164 60 -197 84 -16 11 -43 53 -66 102 -44
93 -76 123 -159 151 -34 10 -53 22 -53 32 0 16 65 83 81 83 5 0 9 7 9 15 0 8
-5 15 -11 15 -5 0 -7 5 -4 10 9 15 -24 25 -38 11 -6 -6 -16 -11 -22 -11 -12 0
-67 -45 -165 -137 -31 -29 -60 -50 -63 -46 -4 3 -7 1 -7 -5 0 -7 -15 -12 -35
-12 -20 0 -70 -7 -112 -16 -97 -20 -151 -21 -232 -6 -69 12 -105 38 -163 117
-31 42 -101 95 -125 95 -25 0 -71 39 -104 88 -53 79 -73 146 -74 247 0 50 -7
117 -14 150 -9 41 -11 88 -7 148 4 52 3 94 -3 100 -17 21 -41 120 -39 161 1
40 1 40 5 6 5 -45 42 -158 54 -165 5 -4 5 5 -1 20 -19 49 -13 63 23 60 17 -1
56 -9 84 -18 85 -26 142 -4 103 38 -16 17 -17 24 -7 35 9 10 9 12 0 6 -7 -4
-13 -3 -13 2 0 6 7 12 15 16 8 3 15 15 15 26 0 21 16 25 58 13 18 -4 20 -8 10
-14 -10 -7 -10 -9 2 -9 13 0 13 -1 0 -10 -13 -8 -12 -10 3 -10 9 0 17 -3 17
-7 0 -8 87 -7 120 0 51 11 97 70 86 111 -10 39 -85 115 -124 126 -20 6 -92 14
-159 17 -99 5 -129 3 -165 -11 l-43 -16 23 19 c33 29 95 35 219 21 126 -13
180 -34 218 -84 27 -36 48 -48 41 -23 -3 6 -7 24 -10 38 -3 14 -19 40 -36 58
-17 17 -28 36 -25 41 4 6 0 13 -8 16 -8 3 -13 13 -10 24 3 10 0 21 -6 24 -6 4
-11 18 -11 32 0 17 -4 23 -12 18 -6 -4 -8 -3 -5 2 3 6 28 10 56 9 l50 -1 -22
31 c-11 16 -26 33 -32 37 -6 5 -5 8 3 8 7 0 10 5 6 11 -4 7 -1 10 7 7 8 -3 28
10 46 29 17 18 35 33 40 33 5 0 40 29 78 65 39 36 74 65 78 65 5 0 5 5 2 10
-4 6 5 10 19 10 14 0 26 5 26 11 0 6 9 8 20 4 11 -3 20 -2 20 3 0 13 52 22 69
12 9 -5 23 -2 35 5 25 16 67 10 93 -14 10 -9 26 -20 36 -24 9 -3 17 -11 17
-17 0 -6 5 -8 12 -4 8 5 9 2 5 -9 -3 -9 -2 -19 4 -22 5 -4 7 -24 4 -45 -5 -33
-2 -41 25 -64 18 -14 38 -26 46 -26 8 0 17 -7 21 -16 3 -8 12 -13 20 -10 8 3
11 1 8 -4 -6 -9 11 -14 43 -13 9 1 10 -3 2 -12 -8 -9 -8 -15 0 -20 5 -3 10 -2
10 3 0 11 38 25 60 22 8 -1 19 -8 25 -15 5 -8 19 -15 30 -17 11 -2 23 -7 26
-12 4 -4 7 -54 8 -110 1 -85 5 -133 15 -211 1 -5 5 -15 8 -21 4 -6 10 -29 14
-50 5 -35 3 -41 -18 -51 -23 -11 -23 -12 7 -12 36 -1 60 -15 51 -29 -4 -6 -20
-6 -48 3 -35 10 -44 18 -49 41 -8 39 -32 85 -58 108 -27 24 -152 54 -263 62
-84 7 -89 6 -130 -21 -57 -37 -97 -74 -114 -107 -18 -35 -18 -59 0 -52 7 3 26
-6 42 -20 16 -14 23 -26 17 -26 -7 0 -13 -12 -14 -27 -1 -37 -12 -65 -24 -61
-6 2 -11 -8 -13 -22 -2 -16 0 -21 6 -13 5 8 8 1 8 -21 0 -22 11 -47 34 -77 22
-28 26 -37 11 -24 -34 30 -69 94 -77 142 -3 24 -10 40 -15 37 -5 -3 -9 21 -9
53 -1 50 -2 56 -14 41 -7 -10 -17 -18 -22 -18 -5 0 -15 -14 -23 -31 -12 -28
-11 -33 10 -62 12 -18 28 -36 36 -40 7 -4 13 -13 13 -20 0 -7 18 -34 40 -62
47 -59 55 -116 19 -135 -26 -14 -40 -3 -59 45 -9 22 -16 31 -21 23 -6 -9 -11
-9 -23 1 -16 14 -36 7 -36 -12 0 -8 3 -8 9 2 6 9 11 10 15 3 4 -6 -3 -16 -14
-22 -13 -7 -20 -7 -20 0 0 5 -9 10 -20 10 -11 0 -20 -4 -20 -10 0 -5 -6 -10
-14 -10 -19 0 -27 -37 -10 -44 7 -3 16 -1 19 4 3 4 -1 10 -7 13 -7 2 -1 4 15
4 27 1 36 -10 17 -22 -19 -12 -10 -21 34 -33 24 -6 52 -19 61 -28 22 -22 126
-29 118 -8 -3 8 -1 14 5 14 5 0 12 23 15 51 4 29 9 54 11 57 3 3 32 -3 64 -12
104 -29 189 -20 235 26 l22 22 -27 -17 c-35 -22 -170 -18 -213 5 -38 21 -97
75 -118 108 -25 38 -18 84 16 103 19 11 27 13 27 4 0 -8 4 -7 9 2 8 12 12 12
25 2 18 -15 107 -16 134 -2 9 5 41 9 70 9 28 1 57 4 64 8 6 4 8 3 4 -4 -11
-18 14 -25 40 -11 13 7 24 16 24 21 0 4 10 19 22 33 23 26 63 34 70 13 3 -7
18 -12 34 -13 l29 0 -2 -73 c-1 -44 -12 -106 -27 -155 -38 -126 -76 -307 -75
-362 0 -19 0 -19 18 3 11 12 24 22 29 22 6 0 21 22 35 50 13 27 27 47 30 44 7
-7 27 54 27 82 0 13 10 34 23 47 12 14 28 46 36 73 7 27 24 72 37 101 13 28
24 60 24 70 0 14 2 15 9 4 7 -10 11 -1 16 32 5 29 11 44 18 40 6 -4 8 2 5 15
-4 12 -3 22 1 22 16 0 36 180 35 310 -1 303 -107 588 -280 755 -52 50 -107 95
-116 95 -4 0 -8 4 -8 9 0 5 -13 12 -30 16 -16 4 -32 15 -35 26 -15 47 -100
105 -211 143 -38 13 -95 35 -128 50 -71 32 -110 33 -129 5z m-482 -1248 c-6
-5 -25 10 -25 20 0 5 6 4 14 -3 8 -7 12 -15 11 -17z m981 13 c60 -17 88 -41
110 -93 18 -42 18 -57 2 -44 -7 5 -23 10 -36 11 -23 1 -72 39 -72 57 0 5 -17
26 -37 47 -42 43 -41 44 33 22z m-75 -11 c13 -16 12 -17 -3 -4 -10 7 -18 15
-18 17 0 8 8 3 21 -13z m-208 -50 c7 -35 1 -41 -20 -21 -8 9 -13 24 -10 32 10
25 24 19 30 -11z m150 -440 c-18 -2 -48 -2 -65 0 -18 2 -4 4 32 4 36 0 50 -2
33 -4z m-19 -748 c5 -15 4 -14 -5 3 -7 12 -15 22 -19 22 -4 0 -5 12 -2 28 l6
27 7 -30 c3 -16 9 -39 13 -50z m-37 -147 c-3 -8 -6 -5 -6 6 -1 11 2 17 5 13 3
-3 4 -12 1 -19z m-86 -102 c-10 -12 -8 -16 10 -21 12 -4 17 -10 11 -14 -5 -3
-16 -26 -23 -51 -7 -25 -16 -50 -21 -57 -5 -6 -7 -38 -5 -72 3 -36 0 -62 -6
-64 -13 -4 -18 -37 -6 -37 5 0 9 -14 9 -31 0 -17 4 -28 10 -24 6 3 10 2 10 -4
0 -5 3 -17 7 -27 4 -12 3 -15 -5 -10 -7 4 -12 1 -12 -9 0 -11 5 -15 15 -11 9
3 15 0 15 -9 0 -8 6 -13 13 -11 6 1 9 1 5 -1 -5 -3 -8 -11 -8 -19 0 -8 -4 -14
-9 -14 -16 0 -23 -38 -10 -61 10 -20 9 -21 -7 -15 -18 6 -18 5 -1 -8 9 -7 17
-19 17 -27 0 -9 5 -7 12 5 10 18 12 17 22 -15 7 -20 18 -33 26 -31 10 2 11 0
2 -11 -10 -11 -9 -17 3 -27 9 -7 13 -20 10 -29 -3 -11 0 -9 11 4 l17 20 -8
-20 c-4 -11 -8 -24 -9 -30 -7 -24 -25 -59 -25 -47 -1 6 -12 12 -26 12 -13 0
-28 6 -32 13 -12 20 -39 27 -53 14 -10 -9 -11 -9 -6 0 3 6 2 14 -4 18 -5 3
-10 1 -10 -5 0 -7 -5 -6 -14 2 -12 11 -11 14 8 20 17 5 17 6 3 7 -10 1 -17 7
-16 14 4 34 -2 47 -23 47 -17 0 -19 -3 -9 -9 7 -5 11 -14 7 -20 -5 -7 -1 -9
11 -5 15 4 14 3 -2 -7 -22 -14 -29 -14 -31 1 -1 6 -2 14 -3 19 0 5 -10 13 -21
16 -11 3 -20 10 -20 15 0 5 8 7 18 3 9 -3 0 6 -21 21 -21 14 -43 26 -49 26 -7
0 -4 6 6 13 17 12 17 15 2 29 -9 9 -16 21 -16 26 0 6 -7 12 -15 16 -8 3 -15
13 -15 23 0 14 2 15 9 4 6 -9 11 -10 15 -2 10 15 -3 33 -16 25 -7 -5 -9 0 -6
14 4 12 2 22 -4 22 -6 0 -7 7 -4 16 3 8 2 12 -4 9 -9 -6 -14 8 -11 28 0 4 -3
7 -9 7 -6 0 -9 4 -8 8 5 15 -44 72 -55 65 -6 -3 -7 -1 -3 5 4 7 1 12 -6 12
-10 0 -9 3 2 10 12 7 10 11 -10 19 -25 10 -25 10 5 11 25 0 27 2 13 11 -10 5
-18 15 -18 20 0 6 5 7 12 3 7 -4 8 -3 4 4 -4 7 -17 12 -29 12 -18 0 -19 2 -7
10 8 5 11 10 5 10 -5 0 -11 12 -11 26 -2 18 2 24 12 20 7 -3 18 3 23 12 6 9
11 12 11 7 0 -10 16 -15 62 -18 9 -1 14 -5 12 -9 -10 -15 64 -12 83 4 7 5 17
7 23 3 5 -3 10 -1 10 4 0 6 3 10 8 9 17 -3 61 22 66 39 3 10 15 24 27 31 12 8
18 9 14 3 -14 -24 14 -9 30 15 9 14 19 23 22 20 3 -3 0 -12 -6 -20z m34 -6 c3
-5 -1 -10 -10 -10 -9 0 -13 5 -10 10 3 6 8 10 10 10 2 0 7 -4 10 -10z m105
-460 c0 -5 -2 -10 -4 -10 -3 0 -8 5 -11 10 -3 6 -1 10 4 10 6 0 11 -4 11 -10z
m170 -980 c0 -22 -4 -40 -10 -40 -11 0 -14 63 -3 73 11 12 13 8 13 -33z m1540
-430 c0 -5 -8 -10 -17 -10 -15 0 -16 2 -3 10 19 12 20 12 20 0z m20 -54 c0 9
3 15 6 11 4 -3 3 -14 -1 -24 -4 -10 -7 -28 -6 -41 2 -17 -6 -26 -31 -36 -18
-8 -36 -12 -39 -10 -4 2 -12 -3 -19 -11 -7 -8 -9 -15 -6 -15 4 0 -5 -12 -19
-27 -14 -15 -25 -31 -25 -35 0 -3 -8 -5 -17 -3 -10 2 -21 4 -25 4 -5 1 -8 8
-8 17 0 8 -4 13 -8 10 -5 -3 -9 1 -9 9 0 8 8 17 16 20 9 3 18 15 19 28 1 23
32 91 32 73 0 -5 9 3 20 17 26 33 78 40 103 14 16 -18 17 -18 17 -1z"/>
<path d="M2920 1432 c0 -12 19 -26 26 -19 2 2 -2 10 -11 17 -9 8 -15 8 -15 2z"/>
<path d="M2968 3946 c-13 -4 -32 -12 -43 -16 -11 -4 -42 -13 -70 -19 -47 -12
-69 -27 -59 -42 2 -4 0 -10 -6 -14 -19 -12 -10 -22 16 -17 24 4 25 3 15 -17
-7 -11 -16 -21 -21 -21 -5 0 -33 -24 -62 -52 -60 -60 -84 -115 -59 -136 14
-11 12 -12 -9 -7 -24 6 -24 5 -6 -9 28 -22 38 -20 71 14 40 42 99 81 137 91
l33 8 -32 -3 c-38 -3 -39 -1 -17 22 34 34 156 31 195 -4 16 -15 17 -14 12 4
-3 11 -16 23 -29 26 -17 5 -22 11 -17 24 5 14 4 15 -8 6 -16 -13 -51 -15 -43
-2 3 4 -2 15 -10 23 -12 13 -13 21 -4 40 12 27 25 30 78 16 19 -6 49 -11 65
-13 17 -2 33 -7 36 -11 3 -5 12 -9 20 -10 8 -2 20 -6 27 -10 6 -5 12 -6 12 -4
0 9 -32 67 -40 72 -5 3 -7 11 -4 18 2 7 -3 22 -13 34 -15 17 -29 20 -80 19
-34 0 -72 -5 -85 -10z m189 -96 c-1 -17 -12 -18 -12 -2 0 4 -4 13 -8 19 -6 9
-3 11 7 7 8 -3 14 -14 13 -24z"/>
<path d="M2968 3703 c7 -3 16 -2 19 1 4 3 -2 6 -13 5 -11 0 -14 -3 -6 -6z"/>
<path d="M2447 3623 c-12 -12 -7 -32 6 -27 8 3 14 11 14 19 0 16 -9 19 -20 8z"/>
<path d="M2416 3574 c-3 -9 -4 -19 -1 -22 3 -3 5 1 5 9 0 11 2 11 10 -1 5 -8
10 -10 10 -5 0 6 -4 16 -9 23 -6 11 -10 10 -15 -4z"/>
<path d="M2500 3560 c0 -5 -11 -12 -24 -16 -27 -6 -42 -44 -23 -56 9 -6 9 -8
0 -8 -6 0 -19 -25 -29 -56 -25 -79 -80 -146 -148 -178 -59 -28 -70 -31 -62
-17 5 8 -153 22 -163 15 -2 -2 15 -6 38 -10 31 -5 39 -9 29 -16 -8 -6 18 -8
74 -5 67 4 88 2 92 -9 3 -7 1 -16 -4 -19 -6 -4 -10 -11 -10 -16 0 -33 102 87
134 159 9 18 35 58 59 90 53 69 75 111 70 135 -5 18 -33 24 -33 7z"/>
<path d="M2400 3517 c0 -8 7 -20 15 -27 12 -10 15 -10 15 3 0 8 -7 20 -15 27
-12 10 -15 10 -15 -3z"/>
<path d="M2706 3445 c-3 -8 -1 -15 3 -15 5 0 11 7 15 15 3 8 1 15 -3 15 -5 0
-11 -7 -15 -15z"/>
<path d="M2386 3383 c-6 -14 -5 -15 5 -6 7 7 10 15 7 18 -3 3 -9 -2 -12 -12z"/>
<path d="M1997 3269 c7 -7 15 -10 18 -7 3 3 -2 9 -12 12 -14 6 -15 5 -6 -5z"/>
<path d="M2395 3160 c-3 -11 -13 -26 -20 -34 -13 -12 -12 -15 1 -20 8 -3 13
-2 10 2 -3 5 18 17 46 27 47 17 49 19 33 32 -28 20 -63 16 -70 -7z"/>
<path d="M2180 2989 c0 -6 -8 -8 -19 -4 -12 3 -23 0 -28 -8 -4 -7 -16 -16 -26
-20 -20 -7 -19 -34 0 -55 7 -7 17 -11 23 -7 5 3 7 0 4 -9 -5 -12 0 -12 32 -1
45 15 70 10 92 -21 37 -52 51 -64 106 -94 37 -19 73 -30 100 -30 29 0 37 -3
26 -9 -8 -6 -17 -8 -21 -5 -4 2 -10 0 -13 -5 -8 -12 3 -19 45 -27 86 -16 169
0 169 33 0 7 10 17 23 22 12 5 39 21 60 35 20 14 37 20 37 14 0 -14 39 -48 57
-48 21 0 27 -1 44 -11 14 -7 18 -1 23 41 7 52 29 75 71 75 12 0 21 8 23 20 2
11 1 17 -4 12 -4 -4 -14 -1 -23 7 -9 7 -33 19 -53 25 -20 7 -42 19 -48 27 -7
7 -16 14 -21 14 -5 0 -18 9 -30 21 -17 17 -23 18 -36 8 -10 -9 -11 -15 -4 -17
6 -2 11 -8 11 -13 0 -6 -3 -8 -8 -5 -4 2 -6 -13 -4 -35 2 -21 2 -39 -1 -39 -3
0 -38 13 -77 29 -65 27 -84 30 -174 29 -56 0 -125 -7 -154 -14 -62 -16 -168
-19 -177 -4 -3 6 0 10 7 10 8 0 6 5 -5 11 -12 7 -15 17 -11 35 4 14 2 24 -5
24 -6 0 -11 -5 -11 -11z"/>
<path d="M3181 2734 c0 -11 3 -14 6 -6 3 7 2 16 -1 19 -3 4 -6 -2 -5 -13z"/>
</g>
</svg>
